<svg width="28" height="28" viewBox="0 0 28 28" fill="none" xmlns="http://www.w3.org/2000/svg">
<rect width="28" height="28" rx="14" fill="#F7F8FA"/>
<path d="M16.6667 10.1867C16.6666 10.5878 16.508 10.9727 16.2253 11.2573C15.5747 11.9133 14.9433 12.5973 14.268 13.2293C14.1926 13.298 14.0937 13.3351 13.9917 13.333C13.8898 13.3309 13.7925 13.2897 13.72 13.218L11.7747 11.258C11.4917 10.9732 11.3329 10.5881 11.3329 10.1867C11.3329 9.78524 11.4917 9.4001 11.7747 9.11533C11.9158 8.97319 12.0836 8.86037 12.2685 8.78339C12.4534 8.7064 12.6517 8.66676 12.852 8.66676C13.0523 8.66676 13.2506 8.7064 13.4355 8.78339C13.6204 8.86037 13.7882 8.97319 13.9293 9.11533L14 9.18667L14.0707 9.11533C14.2825 8.90124 14.5532 8.75502 14.8483 8.69528C15.1435 8.63555 15.4498 8.66499 15.7282 8.77988C16.0065 8.89476 16.2444 9.08988 16.4116 9.3404C16.5787 9.59093 16.6675 9.88552 16.6667 10.1867Z" stroke="#1B1149" stroke-width="1.25" stroke-linejoin="round"/>
<path d="M18 19.3333L20.5493 16.784C20.6244 16.7091 20.6666 16.6074 20.6667 16.5013V13C20.6667 12.7348 20.5613 12.4804 20.3738 12.2929C20.1862 12.1054 19.9319 12 19.6667 12C19.4014 12 19.1471 12.1054 18.9596 12.2929C18.772 12.4804 18.6667 12.7348 18.6667 13V16" stroke="#1B1149" stroke-width="1.25" stroke-linecap="round" stroke-linejoin="round"/>
<path d="M18 16.6667L18.572 16.0947C18.6022 16.0647 18.6261 16.0291 18.6423 15.9899C18.6586 15.9506 18.6669 15.9085 18.6667 15.866C18.6662 15.8061 18.6493 15.7475 18.6178 15.6966C18.5863 15.6457 18.5414 15.6045 18.488 15.5773L18.1927 15.43C17.9425 15.3049 17.6592 15.2617 17.3831 15.3064C17.107 15.3512 16.8519 15.4816 16.654 15.6793L16.0573 16.276C15.8073 16.526 15.6667 16.8651 15.6667 17.2187V19.3333M10 19.3333L7.45067 16.784C7.37563 16.7091 7.33343 16.6074 7.33333 16.5013V13C7.33333 12.7348 7.43869 12.4804 7.62623 12.2929C7.81376 12.1054 8.06812 12 8.33333 12C8.59855 12 8.8529 12.1054 9.04044 12.2929C9.22798 12.4804 9.33333 12.7348 9.33333 13V16" stroke="#1B1149" stroke-width="1.25" stroke-linecap="round" stroke-linejoin="round"/>
<path d="M10 16.6667L9.428 16.0947C9.36827 16.0334 9.33437 15.9516 9.33333 15.866C9.33333 15.744 9.40267 15.6327 9.512 15.5773L9.80733 15.43C10.0575 15.3049 10.3408 15.2617 10.6169 15.3064C10.893 15.3512 11.1481 15.4816 11.346 15.6793L11.9427 16.276C12.1927 16.526 12.3333 16.8651 12.3333 17.2187V19.3333" stroke="#1B1149" stroke-width="1.25" stroke-linecap="round" stroke-linejoin="round"/>
</svg>
