<svg width="70" height="20" viewBox="0 0 70 20" fill="none" xmlns="http://www.w3.org/2000/svg">
<g id="logos:youtube" clip-path="url(#clip0_217_2778)">
<path id="Vector" d="M21.8601 3.09138C21.7319 2.49381 21.4818 1.94903 21.1347 1.51131C20.7876 1.07358 20.3556 0.758192 19.8817 0.596552C18.147 0 11.1659 0 11.1659 0C11.1659 0 4.18454 0.0181035 2.45007 0.614655C1.97626 0.776321 1.5443 1.09172 1.19721 1.52945C0.850128 1.96717 0.600036 2.51193 0.471845 3.10948C-0.0528567 6.99655 -0.256421 12.9191 0.4862 16.6505C0.61439 17.2481 0.864482 17.7928 1.21157 18.2306C1.55865 18.6683 1.99061 18.9837 2.46443 19.1453C4.19903 19.7419 11.1803 19.7419 11.1803 19.7419C11.1803 19.7419 18.1615 19.7419 19.8961 19.1453C20.3699 18.9837 20.8019 18.6683 21.1489 18.2306C21.496 17.7928 21.7461 17.2481 21.8743 16.6505C22.4276 12.7581 22.5982 6.83914 21.8599 3.09155" fill="#FF0000"/>
<path id="Vector_2" d="M8.9444 14.1014L14.7358 9.87102L8.9444 5.6405V14.1014Z" fill="white"/>
<path id="Vector_3" d="M67.1598 5.73103C67.9195 5.73103 68.4929 5.91172 68.8943 6.25516C69.2957 6.59873 69.5824 7.14114 69.7545 7.8824C69.9265 8.62361 69.9981 9.63585 69.9981 10.9376V13.0529H66.314V13.7036L66.3714 15.4934C66.4143 15.8912 66.4861 16.1805 66.6007 16.3612C66.7155 16.5421 66.9017 16.6324 67.1455 16.6324C67.4752 16.6324 67.7046 16.4698 67.8192 16.1445C67.9482 15.819 68.0055 15.2765 68.0199 14.5353L69.9265 14.68C69.9408 14.7884 69.9408 14.9331 69.9408 15.1138C69.9408 16.2528 69.6971 17.1026 69.1953 17.6629C68.6936 18.2233 68.0055 18.5126 67.1024 18.5126C66.0129 18.5126 65.2532 18.0788 64.8231 17.2291C64.3932 16.3793 64.1638 15.0414 64.1638 13.2517V11.0641C64.2124 7.99085 64.641 5.73999 67.1598 5.73103ZM40.654 5.96603V15.0234C40.654 15.5659 40.697 15.9636 40.7973 16.1986C41.0009 16.7012 41.5284 16.5727 41.8151 16.3252C41.9806 16.184 42.114 15.9909 42.2022 15.7648V5.96585H44.3954V18.3136H42.6752L42.4888 16.795H42.4459C41.9729 17.934 41.2703 18.5124 40.3386 18.5124C38.9045 18.5079 38.5536 17.2048 38.47 15.8814L38.4646 15.7881C38.4542 15.5876 38.4482 15.3869 38.4464 15.186V5.96603H40.654ZM51.9645 5.96603V15.0234C51.9645 15.5659 52.0074 15.9636 52.1078 16.1986C52.3115 16.7012 52.8389 16.5727 53.1256 16.3252C53.2911 16.184 53.4245 15.9909 53.5126 15.7648V5.96585H55.7059V18.3136H53.9857L53.7993 16.795H53.7564C53.2834 17.934 52.5808 18.5124 51.6491 18.5124C50.215 18.5079 49.8641 17.2048 49.7805 15.8814L49.7751 15.7881C49.7647 15.5876 49.7587 15.3869 49.7569 15.186V5.96603H51.9645ZM34.2891 5.73103C35.0059 5.73103 35.5936 5.91172 36.0237 6.29137C36.4537 6.67103 36.7834 7.24965 36.9841 8.04499C37.1848 8.84051 37.2852 9.90706 37.2852 11.2269V13.0165C37.2852 14.3364 37.1848 15.385 36.9841 16.1803C36.7834 16.976 36.468 17.5545 36.0237 17.9341C35.5794 18.2957 34.9772 18.4945 34.2318 18.4945C33.4576 18.5126 32.8555 18.3138 32.4112 17.9522C31.9669 17.5726 31.6514 16.994 31.4652 16.1986C31.2787 15.4031 31.1927 14.3545 31.1927 13.0348V11.2448C31.1927 9.92499 31.2931 8.84034 31.5081 8.04482C31.7232 7.23137 32.0528 6.65275 32.5116 6.29137C32.9702 5.92965 33.558 5.73085 34.2891 5.73085M59.1464 0.777405V7.28568H59.1608C59.3615 6.81568 59.6194 6.43603 59.9779 6.14672C60.3127 5.86302 60.707 5.71196 61.1103 5.71292C61.6407 5.71292 62.0421 5.89361 62.3432 6.23706C62.6442 6.59878 62.8593 7.15913 62.9882 7.93654C63.1133 8.68965 63.1844 9.7312 63.1887 11.0446L63.1889 11.1728V13.1252C63.1889 14.951 63.0025 16.3071 62.6584 17.1748C62.3002 18.0426 61.7554 18.4765 61.0099 18.4765C60.5943 18.4765 60.2215 18.35 59.8776 18.115C59.5734 17.8913 59.3212 17.5707 59.1461 17.1853L59.1177 17.1205H59.0748L58.8454 18.2957H57.0248V0.777577L59.1464 0.777405ZM50.3732 1.41016V3.65172H48.1943V18.3136H46.044V3.65189H43.8508V1.41034L50.3732 1.41016ZM26.7344 1.41016L26.7358 1.41706C26.7567 1.53447 27.0465 3.15947 27.3653 5.05275L27.3905 5.20275L27.4285 5.42947L27.4539 5.58172L27.4666 5.65809L27.492 5.8112L27.5048 5.88792L27.5301 6.04154L27.567 6.2662C27.7823 7.57723 27.9878 8.89206 28.1107 9.83482H28.1681C28.2858 8.98913 28.4568 7.90689 28.6392 6.80189L28.687 6.51327C28.711 6.36867 28.7352 6.2243 28.7595 6.08016L28.797 5.85654C29.0446 4.3922 29.2997 2.92988 29.5621 1.46965L29.5662 1.44637L29.5728 1.41016H31.7661L29.2287 12.8179V18.2957H27.0641V12.8359H27.0498L24.5411 1.40999L26.7344 1.41016ZM34.246 7.64723C33.945 7.64723 33.7443 7.8462 33.6154 8.26206C33.4865 8.67792 33.4291 9.31051 33.4291 10.1965V14.0472C33.4291 14.9512 33.4863 15.62 33.601 16.0179C33.7158 16.4156 33.9308 16.6145 34.246 16.6145C34.5471 16.6145 34.7621 16.4156 34.8912 16.0179C35.0202 15.62 35.0775 14.9512 35.0775 14.0472V10.1964C35.0775 9.31051 35.0201 8.65965 34.8912 8.26189C34.7621 7.8462 34.5471 7.64723 34.246 7.64723ZM59.5335 8.00896C59.3587 8.21241 59.2345 8.46327 59.1605 8.77689L59.1464 8.84051V15.855C59.3241 16.2346 59.5765 16.4878 60.0208 16.5059C60.2501 16.5059 60.4365 16.3974 60.58 16.1805C60.7233 15.9636 60.8236 15.602 60.8809 15.0957C60.936 14.6098 60.9647 13.9406 60.9669 13.0881V11.3715C60.9669 10.3953 60.9382 9.65413 60.8952 9.12982C60.8378 8.60551 60.7663 8.22585 60.6373 8.00896C60.3878 7.55689 59.8488 7.56241 59.5335 8.00896ZM67.1169 7.59309C66.8731 7.61114 66.701 7.70154 66.6007 7.8643C66.4861 8.04499 66.4143 8.3162 66.3714 8.71396C66.3292 9.10361 66.3147 10.4657 66.314 10.5202V11.4078H67.9195V10.625V10.64C67.9186 10.9136 67.9141 10.4812 67.9042 9.95034L67.9028 9.87896C67.8938 9.41241 67.8807 8.89223 67.8622 8.71396C67.8192 8.29809 67.7474 8.00878 67.6328 7.8462C67.5181 7.68344 67.3461 7.59309 67.1167 7.59309" fill="#282828"/>
</g>
<defs>
<clipPath id="clip0_217_2778">
<rect width="70" height="20" fill="white"/>
</clipPath>
</defs>
</svg>
