<svg width="70" height="20" viewBox="0 0 70 20" fill="none" xmlns="http://www.w3.org/2000/svg">
<g id="logos:instagram" clip-path="url(#clip0_217_2786)">
<path id="Vector" d="M3.71011 0.123548C2.28187 0.723 0.711999 2.41437 0.216141 4.53903C-0.411918 7.23012 2.20121 8.36848 2.41571 7.99574C2.66795 7.55725 1.94747 7.40903 1.79914 6.01259C1.60747 4.20903 2.44429 2.19382 3.49752 1.30958C3.69302 1.14519 3.68386 1.37396 3.68386 1.79684C3.68386 2.55314 3.64217 9.34273 3.64217 10.7597C3.64217 12.677 3.56315 13.2825 3.4211 13.8808C3.27742 14.487 3.0461 14.8967 3.22123 15.0545C3.417 15.2309 4.25286 14.8111 4.73669 14.1345C5.3169 13.323 5.52005 12.3482 5.55656 11.29C5.60058 10.0141 5.59866 7.98944 5.60058 6.83464C5.60222 5.7756 5.61835 2.67437 5.58198 0.809987C5.5731 0.352452 4.30741 -0.127274 3.71011 0.123548ZM54.4228 9.09656C54.3767 10.0934 54.1565 10.8725 53.8832 11.422C53.3541 12.486 52.2563 12.8163 51.7901 11.287C51.5361 10.4533 51.5242 9.06095 51.7067 7.89752C51.8927 6.71245 52.4119 5.81738 53.2714 5.89807C54.1193 5.97793 54.5162 7.07245 54.4228 9.09656ZM40.1295 15.2811C40.118 16.9372 39.8578 18.3893 39.3 18.8112C38.5087 19.4093 37.4452 18.9605 37.6655 17.752C37.8603 16.6826 38.7819 15.5904 40.1318 14.2559C40.1318 14.2559 40.1345 14.5603 40.1295 15.2811ZM39.9135 9.08697C39.8651 9.99492 39.6302 10.9068 39.3739 11.4222C38.8448 12.4862 37.739 12.8188 37.2808 11.2871C36.9674 10.2405 37.0425 8.88629 37.1974 8.03286C37.3986 6.9256 37.8864 5.89834 38.7621 5.89834C39.6135 5.89834 40.0335 6.83437 39.9135 9.08697ZM31.6334 9.07327C31.5815 10.0346 31.3943 10.8383 31.094 11.4222C30.5504 12.4789 29.475 12.814 29.0009 11.2871C28.659 10.1862 28.7753 8.68505 28.9175 7.8741C29.1286 6.67067 29.6571 5.81752 30.4822 5.89834C31.3297 5.98136 31.7416 7.07273 31.6334 9.07327ZM69.5785 10.1963C69.3714 10.1963 69.2768 10.4103 69.1984 10.7703C68.9274 12.0229 68.642 12.3055 68.2744 12.3055C67.8636 12.3055 67.4945 11.6855 67.3994 10.4441C67.3249 9.46793 67.337 7.67095 67.4323 5.88341C67.4518 5.51615 67.3506 5.15273 66.3675 4.79492C65.9445 4.64095 65.3296 4.41423 65.0234 5.15478C64.1584 7.24711 63.8199 8.90821 63.7402 9.58273C63.7361 9.61766 63.6933 9.62492 63.6859 9.54327C63.6351 9.00286 63.5217 8.02067 63.5075 5.95738C63.5048 5.55478 63.4197 5.21218 62.9762 4.93163C62.6885 4.74944 61.8147 4.42752 61.5001 4.81067C61.2275 5.12382 60.9117 5.96684 60.5838 6.96629C60.3172 7.77862 60.1315 8.32793 60.1315 8.32793C60.1315 8.32793 60.1351 6.13643 60.1382 5.30506C60.1396 4.99149 59.9249 4.88697 59.8601 4.86807C59.5689 4.78341 58.9948 4.6419 58.7511 4.6419C58.4504 4.6419 58.3768 4.81012 58.3768 5.0556C58.3768 5.08779 58.3294 7.94095 58.3294 9.93601C58.3294 10.0227 58.3294 10.1172 58.3298 10.2178C58.1635 11.1348 57.6242 12.3794 57.0377 12.3794C56.4504 12.3794 56.1734 11.8592 56.1734 9.48067C56.1734 8.09314 56.215 7.48971 56.2353 6.48615C56.2472 5.90807 56.2702 5.46423 56.2688 5.36355C56.2645 5.05464 55.7315 4.89889 55.4834 4.84136C55.2342 4.78341 55.0176 4.76081 54.8485 4.77053C54.6091 4.78423 54.4397 4.94136 54.4397 5.15779C54.4397 5.27396 54.4411 5.49451 54.4411 5.49451C54.1328 5.00903 53.637 4.67122 53.3071 4.57327C52.4184 4.30889 51.4913 4.54314 50.7918 5.52382C50.236 6.30286 49.9009 7.18547 49.769 8.45327C49.6726 9.38026 49.704 10.3201 49.8755 11.1151C49.6683 12.012 49.284 12.3794 48.8631 12.3794C48.252 12.3794 47.809 11.3803 47.8604 9.65177C47.8943 8.51492 48.1214 7.71711 48.3696 6.56286C48.4754 6.07081 48.3894 5.81327 48.1738 5.56642C47.976 5.33999 47.5545 5.22423 46.9488 5.36643C46.5174 5.46793 45.9004 5.57711 45.3359 5.66095C45.3359 5.66095 45.3701 5.52464 45.398 5.28464C45.5448 4.02574 44.1794 4.1278 43.7437 4.52985C43.4839 4.76999 43.3068 5.05314 43.2397 5.56218C43.133 6.37012 43.7906 6.75122 43.7906 6.75122C43.575 7.74081 43.0461 9.03341 42.5001 9.96807C42.2076 10.4688 41.984 10.8399 41.6951 11.2342C41.6857 9.65152 41.696 8.06875 41.726 6.48629C41.7379 5.90821 41.761 5.47615 41.7598 5.37533C41.7565 5.14958 41.6248 5.0641 41.351 4.95615C41.1087 4.86053 40.8225 4.79451 40.5254 4.77122C40.1505 4.74218 39.9247 4.94122 39.9307 5.17684C39.9318 5.22136 39.9318 5.49451 39.9318 5.49451C39.6235 5.00903 39.1276 4.67122 38.7977 4.57327C37.9091 4.30889 36.9819 4.54314 36.2825 5.52382C35.7268 6.30286 35.3628 7.39629 35.2596 8.44369C35.1636 9.41971 35.1813 10.2492 35.3122 10.9481C35.171 11.6478 34.7647 12.3796 34.3055 12.3796C33.7182 12.3796 33.3841 11.8592 33.3841 9.48067C33.3841 8.09314 33.4256 7.48971 33.4461 6.48615C33.458 5.90821 33.4808 5.46423 33.4796 5.36355C33.4752 5.05464 32.9422 4.89903 32.6941 4.84136C32.4346 4.78108 32.2105 4.75916 32.0384 4.7719C31.8114 4.78875 31.6518 4.99245 31.6518 5.14437V5.49451C31.3435 5.00903 30.8476 4.67122 30.5177 4.57327C29.6291 4.30889 28.7071 4.54697 28.0025 5.52382C27.5431 6.16067 27.1711 6.8667 26.9797 8.42971C26.9244 8.88136 26.8999 9.30451 26.9032 9.69971C26.72 10.8225 25.9106 12.1164 25.2488 12.1164C24.8615 12.1164 24.4925 11.3635 24.4925 9.7593C24.4925 7.62231 24.6246 4.57958 24.647 4.28643C24.647 4.28643 25.4833 4.27218 25.6451 4.27026C26.0624 4.2656 26.4401 4.2756 26.9959 4.24697C27.2745 4.23286 27.543 3.23053 27.2554 3.10656C27.1249 3.0504 26.2036 3.00136 25.8383 2.99355C25.5313 2.9867 24.6763 2.92314 24.6763 2.92314C24.6763 2.92314 24.753 0.903548 24.7709 0.690261C24.7859 0.512315 24.5562 0.420809 24.4247 0.365329C24.1045 0.229713 23.8181 0.164644 23.4787 0.0945072C23.0095 -0.00247911 22.7967 0.0924524 22.7552 0.489028C22.6926 1.09108 22.6602 2.85451 22.6602 2.85451C22.3159 2.85451 21.1399 2.78711 20.7957 2.78711C20.4758 2.78711 20.1304 4.16574 20.5728 4.18273C21.0817 4.20245 21.9685 4.21971 22.5564 4.23725C22.5564 4.23725 22.5301 7.33012 22.5301 8.28519C22.5302 8.38656 22.5306 8.48464 22.5312 8.57944C22.2076 10.2692 21.068 11.182 21.068 11.182C21.3127 10.0641 20.8128 9.22451 19.9122 8.51382C19.5804 8.25204 18.9254 7.75629 18.1927 7.213C18.1927 7.213 18.617 6.79382 18.9935 5.95053C19.2601 5.353 19.2717 4.66958 18.617 4.51875C17.5353 4.26944 16.6436 5.06547 16.3775 5.91533C16.1714 6.57369 16.2813 7.06204 16.6851 7.56944C16.7145 7.60656 16.7466 7.64451 16.7795 7.68259C16.5354 8.1541 16.1999 8.78903 15.9158 9.28136C15.1273 10.6485 14.5316 11.7296 14.0814 11.7296C13.7216 11.7296 13.7264 10.6318 13.7264 9.60396C13.7264 8.71793 13.7917 7.38574 13.844 6.0067C13.8612 5.55053 13.6334 5.29067 13.252 5.05533C13.0201 4.91232 12.5254 4.63122 12.2388 4.63122C11.8098 4.63122 10.5723 4.68971 9.40311 8.07875C9.25573 8.50588 8.96618 9.28423 8.96618 9.28423L8.99119 5.20875C8.99119 5.11314 8.94034 5.02081 8.82399 4.95766C8.62699 4.8504 8.10078 4.63122 7.63281 4.63122C7.40997 4.63131 7.29855 4.73496 7.29855 4.94218L7.25781 11.3183C7.25781 11.8029 7.27039 12.3681 7.31824 12.6152C7.36581 12.8626 7.44306 13.064 7.53848 13.1837C7.63405 13.3033 7.74437 13.3946 7.92634 13.4322C8.09572 13.4671 9.02318 13.5864 9.07144 13.2314C9.12914 12.8056 9.13146 12.3453 9.61843 10.6283C10.3766 7.95506 11.3651 6.65095 11.8299 6.18766C11.9112 6.10684 12.0039 6.1019 11.9994 6.23437C11.9797 6.8204 11.9099 8.28506 11.863 9.52889C11.7371 12.8583 12.3415 13.4755 13.2054 13.4755C13.8662 13.4755 14.7978 12.8175 15.7964 11.152C16.3527 10.2239 16.9066 9.29422 17.4578 8.363C17.7604 8.64369 18.1001 8.94574 18.4394 9.26848C19.2283 10.0186 19.4872 10.7315 19.3153 11.4077C19.1841 11.9245 18.6891 12.4572 17.8082 11.9396C17.5515 11.7885 17.4418 11.6716 17.1837 11.5014C17.0451 11.41 16.8333 11.3826 16.7063 11.4785C16.3766 11.7275 16.1879 12.0445 16.0802 12.4368C15.9754 12.8186 16.357 13.0204 16.7527 13.197C17.0932 13.3489 17.8253 13.4866 18.292 13.5022C20.111 13.5631 21.5682 12.6222 22.5826 10.1949C22.7642 12.2912 23.5369 13.4774 24.8796 13.4774C25.7772 13.4774 26.6772 12.3148 27.0708 11.1711C27.1837 11.6372 27.351 12.0427 27.5671 12.3856C28.6016 14.0281 30.6085 13.6746 31.6166 12.2798C31.9283 11.8489 31.9758 11.6941 31.9758 11.6941C32.1229 13.0109 33.1813 13.4711 33.7872 13.4711C34.466 13.4711 35.1667 13.1496 35.6579 12.0416C35.7153 12.1621 35.7783 12.2767 35.8469 12.3856C36.8814 14.0281 38.8885 13.6746 39.8966 12.2798C39.944 12.2145 39.9856 12.1551 40.0215 12.1018L40.051 12.9668L39.1228 13.8198C37.5671 15.2486 36.3853 16.3322 36.2984 17.5942C36.1876 19.2034 37.4894 19.8015 38.4757 19.8798C39.5211 19.963 40.4181 19.3838 40.9685 18.5733C41.453 17.8597 41.7702 16.3241 41.7468 14.8075C41.7376 14.2001 41.7222 13.4279 41.7103 12.6001C42.2564 11.9646 42.8718 11.1614 43.4383 10.2214C44.0557 9.19684 44.7174 7.82095 45.0562 6.75012C45.0562 6.75012 45.6311 6.75519 46.2446 6.71492C46.4408 6.70204 46.4973 6.74232 46.4609 6.88629C46.4172 7.06053 45.6857 9.88697 46.3533 11.7698C46.8101 13.0589 47.8399 13.4734 48.4505 13.4734C49.1654 13.4734 49.8491 12.9326 50.2155 12.1296C50.2598 12.219 50.3058 12.3056 50.3563 12.3857C51.3908 14.0282 53.3907 13.6725 54.406 12.2798C54.6351 11.9656 54.7651 11.6941 54.7651 11.6941C54.9829 13.0571 56.0408 13.4781 56.6467 13.4781C57.2778 13.4781 57.8768 13.2188 58.3627 12.0666C58.3832 12.574 58.4151 12.9888 58.4655 13.1194C58.4963 13.1996 58.6757 13.2998 58.8061 13.3483C59.3836 13.5629 59.9722 13.4615 60.1902 13.4174C60.3411 13.3867 60.4588 13.2653 60.4749 12.9522C60.5173 12.1296 60.4913 10.7475 60.7402 9.72026C61.1578 7.99656 61.5476 7.32793 61.7324 6.99697C61.8359 6.81136 61.9525 6.78081 61.9568 6.97711C61.9655 7.37437 61.9852 8.54053 62.1471 10.1077C62.266 11.26 62.4246 11.9412 62.5467 12.157C62.895 12.7734 63.325 12.8026 63.6752 12.8026C63.8981 12.8026 64.364 12.7409 64.3223 12.3486C64.3019 12.1574 64.3375 10.9755 64.7494 9.27725C65.0183 8.16821 65.4667 7.16629 65.6285 6.79985C65.6882 6.66478 65.716 6.77122 65.7149 6.79204C65.6808 7.55574 65.6044 10.0538 65.9149 11.4201C66.336 13.2709 67.5535 13.4781 67.9779 13.4781C68.8837 13.4781 69.6246 12.7877 69.8741 10.9709C69.9342 10.5337 69.8452 10.1963 69.5785 10.1963Z" fill="#343433"/>
</g>
<defs>
<clipPath id="clip0_217_2786">
<rect width="70" height="20" fill="white"/>
</clipPath>
</defs>
</svg>
