<svg width="70" height="20" viewBox="0 0 70 20" fill="none" xmlns="http://www.w3.org/2000/svg">
<g id="logos:linkedin" clip-path="url(#clip0_217_2782)">
<path id="Vector" d="M27.625 11.7142L31.4876 17.1428H28.4375L25 12.1572V17.1428H22.4999V2.85719H25V11.2572L28.175 7.14281H31.3625L27.625 11.7142ZM17.625 6.85719C17.0776 6.86659 16.5404 7.02745 16.0593 7.326C15.5782 7.62454 15.1676 8.05187 14.8626 8.57141V7.14281H12.5001V17.1428H15V12.4714C14.9672 12.1323 14.9958 11.7892 15.084 11.4633C15.1722 11.1374 15.3182 10.8358 15.5128 10.5771C15.7075 10.3185 15.9466 10.1084 16.2154 9.95998C16.4841 9.81152 16.7767 9.72787 17.0749 9.71422C18.525 9.71422 18.75 11.3428 18.75 12.4714V17.1428H21.2501V11.8428C21.2501 8.7 20.3375 6.85719 17.675 6.85719H17.625ZM39.9999 12.3714C40.0095 12.5809 40.0095 12.7904 39.9999 13H33.4374V13.1C33.544 13.6957 33.8328 14.2286 34.252 14.6029C34.6712 14.9773 35.1935 15.1687 35.725 15.1428C36.1467 15.1638 36.5677 15.0873 36.9629 14.9179C37.3581 14.7486 37.7194 14.4898 38.025 14.1572L39.6875 15.5858C39.1606 16.2003 38.5269 16.6819 37.8271 16.9993C37.1274 17.3167 36.3772 17.4629 35.6249 17.4286C35.002 17.4736 34.3778 17.3652 33.7946 17.1109C33.2114 16.8566 32.6828 16.4622 32.2444 15.9544C31.806 15.4466 31.468 14.8371 31.2534 14.1673C31.0387 13.4974 30.9523 12.7827 31 12.0714C30.9872 11.3692 31.1011 10.6715 31.3345 10.0219C31.568 9.37219 31.9161 8.78443 32.357 8.29523C32.798 7.80604 33.3224 7.42588 33.8975 7.17847C34.4727 6.93106 35.0862 6.82169 35.7 6.85719C38.0501 6.85719 39.9999 8.75719 39.9999 12.3714ZM37.675 11.1428C37.6658 10.8599 37.6063 10.582 37.5001 10.3262C37.3939 10.0704 37.2432 9.84194 37.0573 9.65482C36.8713 9.46769 36.654 9.3258 36.4185 9.23777C36.183 9.14975 35.9343 9.11744 35.6876 9.14281C34.5883 9.00703 33.5929 9.89188 33.4374 11.1428H37.675ZM2.50004 2.85719H0V17.1428H7.49998V14.2859H2.50004V2.85719ZM47.5001 2.85719H50V17.1428H47.6375V16.1428C47.3375 16.5652 46.9551 16.9015 46.521 17.1248C46.0869 17.348 45.6131 17.4521 45.1376 17.4286C44.5565 17.4115 43.9847 17.2589 43.4572 16.98C42.9297 16.701 42.4577 16.3018 42.0701 15.8067C41.6826 15.3117 41.3878 14.7312 41.2038 14.1012C41.0197 13.4711 40.9504 12.8046 41 12.1428C40.941 11.48 41.0034 10.8105 41.1831 10.1768C41.3628 9.54305 41.656 8.95901 42.044 8.46184C42.432 7.96467 42.9063 7.56525 43.4367 7.28898C43.9672 7.01272 44.5421 6.86567 45.125 6.85719C45.5591 6.83541 45.9927 6.91262 46.4005 7.08431C46.8083 7.25599 47.182 7.51872 47.5001 7.85719V2.85719ZM47.6875 12.1428C47.7268 11.8129 47.7038 11.4773 47.6199 11.1584C47.5361 10.8396 47.3934 10.545 47.2015 10.2945C47.0096 10.0441 46.7729 9.84354 46.5074 9.70648C46.242 9.56942 45.9539 9.49901 45.6626 9.5C44.4667 9.59922 43.5605 10.7745 43.625 12.1428C43.5605 13.5111 44.4667 14.6866 45.6626 14.7858C45.9539 14.7868 46.242 14.7164 46.5075 14.5793C46.773 14.4422 47.0096 14.2417 47.2016 13.9912C47.3935 13.7407 47.5362 13.4461 47.62 13.1273C47.7038 12.8084 47.7268 12.4727 47.6875 12.1428ZM10 2.57141C9.59799 2.57788 9.21309 2.75847 8.92306 3.07671C8.63303 3.39495 8.45948 3.82712 8.43746 4.28594C8.43746 5.27203 9.13705 6.07156 10 6.07156C10.863 6.07156 11.5623 5.27187 11.5623 4.28594C11.5403 3.82718 11.3667 3.39507 11.0767 3.07687C10.7867 2.75866 10.4019 2.57807 9.99988 2.57156M8.75 17.1428H11.25V7.14281H8.75V17.1428ZM70 1.42859V18.5714C70 18.9503 69.8683 19.3137 69.6339 19.5816C69.3995 19.8495 69.0815 20 68.75 20H53.75C53.4185 20 53.1005 19.8495 52.8661 19.5816C52.6317 19.3137 52.5 18.9503 52.5 18.5714V1.42859C52.5 1.04971 52.6317 0.686339 52.8661 0.418425C53.1005 0.150512 53.4185 0 53.75 0L68.75 0C69.0815 0 69.3995 0.150512 69.6339 0.418425C69.8683 0.686339 70 1.04971 70 1.42859ZM57.4999 7.14281H55V17.1428H57.4999V7.14281ZM57.8125 4.28578C57.8125 3.29953 57.1129 2.5 56.2501 2.5C55.3872 2.5 54.6875 3.29953 54.6875 4.28578C54.6875 5.27187 55.3871 6.07141 56.2501 6.07141C57.1129 6.07141 57.8125 5.27187 57.8125 4.28578ZM67.5 11.8428C67.5 8.7 66.5875 6.85719 63.925 6.85719C63.3692 6.85728 62.8218 7.0137 62.3313 7.31265C61.8408 7.6116 61.4222 8.04389 61.1125 8.57141V7.14281H58.75V17.1428H61.25V12.4714C61.2172 12.1323 61.2458 11.7892 61.334 11.4633C61.4223 11.1374 61.5682 10.8358 61.7629 10.5771C61.9575 10.3185 62.1966 10.1084 62.4654 9.95998C62.7341 9.81152 63.0267 9.72787 63.325 9.71422C64.775 9.71422 65.0001 11.3428 65.0001 12.4714V17.1428H67.5V11.8428Z" fill="#0A66C2"/>
</g>
<defs>
<clipPath id="clip0_217_2782">
<rect width="70" height="20" fill="white"/>
</clipPath>
</defs>
</svg>
