<svg width="70" height="20" viewBox="0 0 70 20" fill="none" xmlns="http://www.w3.org/2000/svg">
<g clip-path="url(#clip0_217_2788)">
<path d="M13.3782 7.18039C14.6951 8.09799 16.3085 8.63799 18.0509 8.63799V5.36959C17.7211 5.36962 17.3922 5.3361 17.0695 5.26959V7.84226C15.3273 7.84226 13.7142 7.30226 12.3969 6.38466V13.0547C12.3969 16.3913 9.62215 19.096 6.19943 19.096C4.9224 19.096 3.73533 18.7196 2.74936 18.0741C3.87464 19.1959 5.44423 19.8917 7.18047 19.8917C10.6035 19.8917 13.3783 17.1871 13.3783 13.8504V7.18026M14.5889 3.88293C13.8965 3.14741 13.4711 2.21037 13.3782 1.21599V0.795593H12.4483C12.6823 2.09719 13.4807 3.20906 14.5888 3.88306M4.91419 15.5136C4.53816 15.033 4.33493 14.445 4.3359 13.8405C4.3359 12.3145 5.605 11.0772 7.1709 11.0772C7.46265 11.0772 7.75275 11.1207 8.03082 11.2067V7.86533C7.70583 7.82201 7.37786 7.80355 7.04991 7.81013V10.4111C6.77165 10.3251 6.48147 10.2814 6.18958 10.2816C4.62368 10.2816 3.35458 11.5188 3.35458 13.0451C3.35458 14.1241 3.98893 15.0584 4.91419 15.5136Z" fill="#FF004F"/>
<path d="M12.3968 6.38466C13.7142 7.30226 15.3273 7.84213 17.0697 7.84213V5.26946C16.1149 5.07049 15.2476 4.58582 14.5887 3.88306C13.4807 3.20906 12.6823 2.09706 12.4482 0.795593H10.0057V13.85C10.0003 15.3719 8.73309 16.6041 7.17074 16.6041C6.24999 16.6041 5.4319 16.1763 4.9139 15.5136C3.9889 15.0584 3.35442 14.1241 3.35442 13.0451C3.35442 11.5189 4.62352 10.2816 6.18942 10.2816C6.48937 10.2816 6.77865 10.3272 7.04975 10.4111V7.81026C3.68718 7.87799 0.98288 10.5563 0.98288 13.8501C0.98288 15.4944 1.65632 16.9849 2.74934 18.0741C3.76946 18.7421 4.97082 19.0979 6.19954 19.0959C9.62226 19.0959 12.397 16.3911 12.397 13.0545L12.3968 6.38466Z" fill="#2C2C31"/>
<path d="M17.069 5.26933V4.57373C16.1921 4.57493 15.3324 4.33555 14.5883 3.88293C15.2469 4.58586 16.1142 5.07047 17.069 5.26933ZM12.4478 0.795733C12.4254 0.671396 12.4083 0.546227 12.3964 0.420533V0H9.02381V13.0545C9.01834 14.5761 7.75157 15.8084 6.18895 15.8084C5.74596 15.8091 5.30902 15.7081 4.91342 15.5137C5.43156 16.1764 6.24951 16.6041 7.17027 16.6041C8.73248 16.6041 9.9998 15.372 10.0053 13.8501V0.7956L12.4478 0.795733ZM7.04941 7.8104V7.06987C6.76759 7.03238 6.48349 7.01358 6.19906 7.0136C2.77607 7.01333 0.0012207 9.71813 0.0012207 13.0545C0.0012207 15.1461 1.09177 16.9896 2.749 18.074C1.65598 16.9849 0.98254 15.4943 0.98254 13.85C0.98254 10.5563 3.68671 7.87813 7.04941 7.8104Z" fill="#00F2EA"/>
<path d="M56.1479 16.3607C58.5969 16.3607 60.5824 14.44 60.5824 12.0708C60.5824 9.7016 58.5969 7.78067 56.1479 7.78067H55.4795C57.9287 7.78067 59.9141 9.70174 59.9141 12.0708C59.9141 14.4399 57.9287 16.3607 55.4795 16.3607H56.1479Z" fill="#FF004F"/>
<path d="M55.4192 7.78067H54.7511C52.302 7.78067 50.3161 9.70174 50.3161 12.0708C50.3161 14.4399 52.302 16.3607 54.7511 16.3607H55.4192C52.9697 16.3607 50.9842 14.44 50.9842 12.0708C50.9842 9.7016 52.9697 7.78067 55.4192 7.78067Z" fill="#00F2EA"/>
<path d="M36.4662 5.84175V10.7187L39.0172 8.25068H42.1151L38.8955 11.3067L42.4797 16.3605H39.7464L37.256 12.8931L36.4662 13.5988V16.3019H33.9148V5.84175H36.4662ZM63.9842 5.84175V10.7187L66.5357 8.25068H69.6336L66.414 11.3067L69.9983 16.3608H67.2646L64.7737 12.8933L63.9842 13.5991V16.3021H61.4323V5.84175H63.9842ZM55.4793 7.78068C57.9285 7.78068 59.9143 9.70175 59.9143 12.0708C59.9143 14.4399 57.9285 16.3607 55.4793 16.3607H55.4189C52.9697 16.3607 50.9843 14.44 50.9843 12.0708C50.9843 9.70161 52.9697 7.78068 55.4189 7.78068H55.4793ZM29.7844 5.84175L29.0554 8.07495H26.9295V16.302H24.3168V8.01628H21.7052V5.84161L29.7844 5.84175ZM51.1669 5.84175L50.4381 8.07495H48.3122V16.302H45.6995V8.01628H43.0879V5.84161L51.1669 5.84175ZM32.8211 9.19148V16.3021H30.2706V9.19148H32.8211ZM55.4497 9.98495C54.2586 9.98495 53.2926 10.9184 53.2926 12.0708C53.2926 13.2232 54.2586 14.1571 55.4497 14.1573C56.64 14.1573 57.6059 13.2232 57.6059 12.0708C57.6059 10.9184 56.64 9.98495 55.4497 9.98495ZM31.5453 5.84175C32.2503 5.84175 32.8211 6.39441 32.8211 7.07575C32.8211 7.75708 32.2507 8.30975 31.5453 8.30975C30.8408 8.30948 30.2706 7.75721 30.2706 7.07575C30.2706 6.39441 30.8408 5.84175 31.5453 5.84175Z" fill="#2C2C31"/>
</g>
<defs>
<clipPath id="clip0_217_2788">
<rect width="70" height="20" fill="white"/>
</clipPath>
</defs>
</svg>
